# xmcd CD database file generated by OrangeCD 5.2
#
# Track frame offsets:
#	150
#	18947
#	35037
#	50587
#	65357
#	83082
#	99685
#	114627
#	129477
#	147730
#	161292
#	178170
#	193532
#	205435
#	219177
#	234957
#	250207
#	264917
#	278855
#	295432
#	311520
#	326267
#
# Disc length: 4555 seconds
#
# Revision: 1
# Processed by: cddbd v1.5.1PL2 Copyright (c) Steve Scherf et al.
# Submitted via: OrangeCD 5.2
#
DISCID=4411c916
DTITLE=Josh Turner/Blake Shelton - Long Black Train/Blake Shelton's Barn and Gril
DTITLE=l
DYEAR=1900
DGENRE=Country
TTITLE0=Josh Turner - Long Black Train
TTITLE1=Josh Turner - In My Dreams
TTITLE2=Josh Turner - What It Ain't
TTITLE3=Josh Turner - I Had One One Time
TTITLE4=Josh Turner - Jacksonville
TTITLE5=Josh Turner - Backwoods Boy
TTITLE6=Josh Turner - Unburn All Our Bridges
TTITLE7=Josh Turner - You Don't Mess Around With Jim
TTITLE8=Josh Turner - She'll Go On You
TTITLE9=Josh Turner - Good Woman Bad
TTITLE10=Josh Turner - The difference Between A Woman And A Man
TTITLE11=Blake Shelton - Some Beach
TTITLE12=Blake Shelton - Nobody But Me
TTITLE13=Blake Shelton - Good Old Boy, Bad Old Boyfriend
TTITLE14=Blake Shelton - Love Gets In The Way
TTITLE15=Blake Shelton - Goodbye Time
TTITLE16=Blake Shelton - Cotton Pickin' Time
TTITLE17=Blake Shelton - What's On My Mind
TTITLE18=Blake Shelton - When Somebody Knows You That Well
TTITLE19=Blake Shelton - On A Good Day
TTITLE20=Blake Shelton - The Bartender
TTITLE21=Blake Shelton - I Drink
EXTD=
EXTT0=
EXTT1=
EXTT2=
EXTT3=
EXTT4=
EXTT5=
EXTT6=
EXTT7=
EXTT8=
EXTT9=
EXTT10=
EXTT11=
EXTT12=
EXTT13=
EXTT14=
EXTT15=
EXTT16=
EXTT17=
EXTT18=
EXTT19=
EXTT20=
EXTT21=
PLAYORDER=
